<svg enable-background="new 0 0 512 512" height="512" viewBox="0 0 512 512" width="512" xmlns="http://www.w3.org/2000/svg"><path d="m365.281 386.936 108.635 96.416-213.754-16.794c41.878-25.3 76.426-55.513 102.294-79.567.426.083.879.129 1.332.129.495-.001.994-.06 1.493-.184zm120.237 57.614 20.008-262.045c-9.898 25.284-25.557 54.73-45.857 86.172zm-112.971-63.567 108.384 96.196-28.936-196.865c-23.853 35.506-52.495 71.808-79.448 100.669zm-126.596 93.793c-23.345 12.934-47.373 23.235-71.707 30.757l249.786-16.798-177.998-13.982zm-208.604-126.225 65.429 152.89 53.851-178.4zm135.167-34.563 182.182 58.517-46.488-184.204zm145.889-143.982 169.829-11.368-132.781-108.448zm96.599-167.087-111.442-.504 49.543 34.69zm-410.217 280.839-3.667 108.653 26.729-48.75zm60.883 43.65c21.184 1.351 42.583-3.343 64.17-12.792 14.541-6.891 29.626-15.612 44.767-25.863 21.715-15.342 43.6-34.532 65.645-56.38 79.292-78.583 111.895-166.467 77.246-201.459-8.268-8.344-20.104-12.609-35.188-12.675-45.66-.197-113.905 34.175-172.069 91.842-55.586 55.098-91.631 120.496-91.824 166.618-.068 16.399 4.469 29.319 13.483 38.407 8.017 8.099 19.408 11.381 33.77 12.302zm165.435 144.772c2.486-1.286 4.963-2.586 7.408-3.909l-73.322-141.472-55.183 182.786c.462-.06 4.189-.508 4.189-.508 4.816-.613 9.573-1.318 14.271-2.115 30.318-5.169 60.315-14.633 89.154-28.139 4.564-2.134 9.051-4.353 13.483-6.643zm149.74-116.689 1.739-1.996c1.214-1.424 2.437-2.875 3.654-4.331 0 0 3.768-4.486 5.232-6.268 2.464-2.98 4.913-6.021 7.371-9.079 2.258-2.82 4.51-5.649 6.758-8.529 2.358-3.021 4.716-6.048 7.056-9.134 5.297-6.973 10.653-14.284 16.377-22.36 6.057-8.544 11.908-17.142 17.416-25.584l-9.931-6.073c-26.371-16.125-79.37-48.606-114.203-70.003l45.074 178.595c4.199-4.611 8.632-9.625 13.457-15.238zm127.392-287.541-140.23-19.689 133.688 109.327c4.697-15.496 7.756-30.524 9.088-44.699.192-1.987.315-3.985.435-5.998.114-1.852.179-3.711.229-5.574.321-12.073-.76-23.288-3.21-33.367zm-53.91 191.792c.344-.453.729-.962 1.149-1.573 2.669-3.779 6.465-9.962 10.686-17.409 11.748-20.717 26.239-50.254 32.282-71.993l-174.412 11.636c36.379 22.356 89.521 54.924 115.942 71.084l14.087 8.598c.084-.105.17-.22.266-.343zm-209.061 206.386.545-.307c38.046-21.084 72.05-47.021 110.142-84.087l-185.419-59.807zm-244.764-54.186c.819 24.146 5.943 44.081 15.241 59.391l8.658-103.113zm33.784-50.535-9.99 119c14.234 18.62 33.252 26.935 61.528 26.935 2.848 0 5.806-.078 8.978-.233l-4.995-12.412c-10.809-26.852-41.653-103.449-55.521-133.29zm471.86-300.803c-2.056-6.289-4.68-12.096-7.811-17.306-12.632-21.015-34.452-34.461-64.871-39.976l-67.961 37.531z"/></svg>